PathFileType	4	(X/Y/Z)	SUBJ24_1_walk_RCNL2025.trc
DataRate	CameraRate	NumFrames	NumMarkers	Units	OrigDataRate	OrigDataStartFrame	OrigNumFrames
100	100	10	25	mm	100	1	335
Frame#	Time	R_Shoulder			L_Shoulder			C7			J_Notch			R_Elbow			L_Elbow			R_Wrist			L_Wrist			R_Asis			L_Asis			Sacral			Thoracic			Sternum			R_Thigh_Lateral			R_Knee_Lateral			R_Shank_Lateral			R_Ankle_Lateral			R_Heel			R_Toe			L_Thigh_Lateral			L_Knee_Lateral			L_Shank_Lateral			L_Ankle_Lateral			L_Heel			L_Toe		
		X1	Y1	Z1	X2	Y2	Z2	X3	Y3	Z3	X4	Y4	Z4	X5	Y5	Z5	X6	Y6	Z6	X7	Y7	Z7	X8	Y8	Z8	X9	Y9	Z9	X10	Y10	Z10	X11	Y11	Z11	X12	Y12	Z12	X13	Y13	Z13	X14	Y14	Z14	X15	Y15	Z15	X16	Y16	Z16	X17	Y17	Z17	X18	Y18	Z18	X19	Y19	Z19	X20	Y20	Z20	X21	Y21	Z21	X22	Y22	Z22	X23	Y23	Z23	X24	Y24	Z24	X25	Y25	Z25
1	0.00000000	-2832.567139	1272.717773	271.838257	-2869.045898	1275.617310	-72.395721	-2930.606934	1339.868042	106.665260	-2800.022949	1244.912720	96.206711	-2826.200684	990.687378	370.514801	-2976.265869	995.981079	-140.232864	-2666.898682	817.946075	332.626221	-2995.266235	761.827118	-127.914440	-2835.464600	829.149963	271.886932	-2812.960205	839.899048	-52.247890	-2999.490723	877.075317	109.074890	-3003.568848	1073.398560	112.129875	-2721.878174	1029.784790	91.045105	-2986.124512	540.078247	292.143402	-2961.895020	394.970001	219.259232	-3066.394287	288.157959	261.866089	-3234.406982	125.209999	183.369125	-3281.878662	140.723862	125.405441	-3159.528809	21.664598	159.562622	-2750.001709	542.371704	-67.771545	-2684.260742	432.508881	-5.477839	-2670.855713	278.240784	-55.411785	-2659.231934	51.711838	11.987520	-2706.776367	25.291433	66.751694	-2540.090576	36.848927	43.729465
2	0.01000000	-2817.707031	1274.477783	270.971466	-2855.730225	1276.868530	-72.777596	-2917.059570	1341.403687	106.392494	-2786.431885	1246.557007	95.427475	-2814.264160	992.120117	369.785278	-2958.998779	995.936157	-140.702179	-2659.139282	815.369659	333.750519	-2974.885742	761.695496	-128.870068	-2820.850830	829.042603	270.523865	-2800.285156	842.630859	-53.515488	-2985.783936	878.293640	109.542603	-2989.794434	1074.813232	112.719231	-2710.864258	1030.282227	91.123665	-2967.646484	538.138184	292.013550	-2940.348145	393.688202	221.157654	-3048.502441	291.109497	263.561096	-3221.233398	133.417587	184.942078	-3265.783203	152.862717	126.263786	-3156.010254	22.730141	159.735413	-2737.652588	544.240479	-68.717659	-2672.847168	433.432098	-5.976412	-2662.914551	278.633118	-55.523808	-2658.249756	51.825840	12.328145	-2706.571045	25.720057	66.843628	-2539.573242	35.906479	44.026554
3	0.02000000	-2803.154297	1276.537354	270.259491	-2842.631836	1278.575195	-72.992043	-2903.702393	1343.214600	106.287483	-2773.031250	1248.505371	94.845253	-2802.375732	993.883667	369.140961	-2941.665771	996.313477	-141.146957	-2651.936279	812.877289	334.933395	-2953.636230	761.976929	-129.990116	-2806.580811	829.331177	269.184937	-2787.889404	845.369568	-54.817261	-2972.310059	879.842590	109.828789	-2976.291504	1076.543701	113.327614	-2699.973877	1031.205200	91.182320	-2948.497314	536.192993	292.057587	-2917.763916	392.686371	223.137939	-3029.314453	294.439697	265.287933	-3206.238281	141.941162	186.299011	-3247.589600	165.128098	126.863548	-3151.047363	24.808281	160.250504	-2726.977783	545.661377	-69.647331	-2663.310303	433.830017	-6.670145	-2656.644043	278.722900	-55.667183	-2657.570801	51.944324	12.608274	-2706.453369	26.024656	66.952080	-2539.270752	35.421276	44.200748
4	0.03000000	-2788.992432	1278.828979	269.753021	-2829.725586	1280.675781	-73.041969	-2890.537598	1345.264893	106.326607	-2759.824951	1250.713867	94.475601	-2790.577148	995.904907	368.598999	-2924.340576	997.097778	-141.594299	-2645.230957	810.520294	336.183151	-2931.593750	762.681458	-131.249222	-2792.679199	830.027405	267.941101	-2775.683838	848.051208	-56.088123	-2959.085693	881.726379	109.903160	-2963.026123	1078.544067	113.898827	-2688.869873	1032.615356	91.169434	-2928.754639	534.366455	292.293182	-2894.289307	392.061340	225.164917	-3008.876465	298.087921	267.019470	-3189.448486	150.637695	187.409058	-3227.585938	177.169891	127.236023	-3143.979004	28.099022	161.231461	-2717.754150	546.719849	-70.485268	-2655.478271	433.846191	-7.489266	-2651.768066	278.600037	-55.828854	-2657.121094	52.039127	12.829747	-2706.405273	26.220390	67.061981	-2539.124023	35.227913	44.290329
5	0.04000000	-2775.267578	1281.284790	269.493530	-2816.968506	1283.096802	-72.937218	-2877.552246	1347.523926	106.484367	-2746.804443	1253.131958	94.316071	-2778.926514	998.109070	368.172119	-2907.070068	998.258301	-142.072464	-2638.961060	808.348846	337.510300	-2908.847778	763.811981	-132.623272	-2779.143311	831.142517	266.853729	-2763.585449	850.640564	-57.253754	-2946.115234	883.930908	109.780991	-2949.958008	1080.771484	114.387161	-2677.314209	1034.526123	91.073013	-2908.510254	532.833740	292.725433	-2870.079346	391.914551	227.200043	-2987.246094	301.967896	268.712433	-3170.922119	159.323868	188.245132	-3206.126221	188.573624	127.383461	-3134.118408	32.628456	162.748764	-2709.584229	547.568970	-71.190208	-2649.019287	433.649567	-8.339380	-2647.930664	278.350006	-56.007404	-2656.833984	52.097836	12.999320	-2706.412842	26.330978	67.159210	-2539.086670	35.202042	44.324650
6	0.05000000	-2761.986816	1283.842529	269.504456	-2804.312500	1285.764526	-72.692909	-2864.724609	1349.963867	106.739952	-2733.953369	1255.708252	94.349724	-2767.489258	1000.429688	367.869537	-2889.873535	999.755737	-142.606216	-2633.066406	806.411163	338.924973	-2885.485718	765.364716	-134.090900	-2765.949707	832.685608	265.965088	-2751.540039	853.128601	-58.251095	-2933.390381	886.422119	109.515266	-2937.047363	1083.185669	114.759521	-2665.183838	1036.911499	90.908150	-2887.852295	531.800720	293.354156	-2845.287109	392.334290	229.204437	-2964.499756	305.976593	270.308502	-3150.742432	167.769058	188.793320	-3183.572754	198.903961	127.289307	-3120.875732	38.212334	164.803436	-2702.079590	548.346802	-71.746887	-2643.559326	433.388672	-9.128938	-2644.786377	278.034912	-56.201401	-2656.656006	52.120022	13.125604	-2706.463135	26.381060	67.234360	-2539.124268	35.257923	44.326382
7	0.06000000	-2749.125488	1286.449829	269.784424	-2791.716064	1288.612915	-72.327263	-2852.030273	1352.557007	107.079956	-2721.250244	1258.397461	94.552795	-2756.329834	1002.815918	367.697937	-2872.749512	1001.549622	-143.214600	-2627.492798	804.750824	340.434021	-2861.583130	767.332397	-135.634365	-2753.060059	834.657410	265.295074	-2739.541992	855.534973	-59.050835	-2920.890137	889.150452	109.177872	-2924.261475	1085.747925	114.995186	-2652.463867	1039.716919	90.704117	-2866.858643	531.454651	294.172424	-2820.054199	393.378082	231.146179	-2940.752686	310.013428	271.744232	-3129.003906	175.694626	189.064697	-3160.221436	207.769516	126.951523	-3103.883057	44.474709	167.316544	-2694.955078	549.158997	-72.172974	-2638.786621	433.164307	-9.793237	-2642.068115	277.694885	-56.402588	-2656.551025	52.114254	13.216451	-2706.543213	26.392422	67.284279	-2539.210938	35.341450	44.313023
8	0.07000000	-2736.637451	1289.067383	270.305847	-2779.149658	1291.590088	-71.859917	-2839.447021	1355.273315	107.496490	-2708.674805	1261.163696	94.903320	-2745.502930	1005.233459	367.661255	-2855.680908	1003.602966	-143.910538	-2622.195312	803.399445	342.038773	-2837.204834	769.708466	-137.237904	-2740.425537	837.044373	264.845306	-2727.638184	857.899597	-59.661663	-2908.587158	892.056885	108.840050	-2911.587891	1088.421387	115.084335	-2639.238037	1042.862671	90.497093	-2845.603027	531.903442	295.159363	-2794.509033	395.062317	233.004089	-2916.156006	313.991302	272.971039	-3105.791748	182.787567	189.106796	-3136.231445	214.881241	126.411179	-3083.069336	50.913815	170.141571	-2688.021729	550.086426	-72.512260	-2634.511230	433.023438	-10.304979	-2639.623535	277.362091	-56.598347	-2656.495117	52.093365	13.279159	-2706.640869	26.382442	67.312119	-2539.325928	35.421524	44.297840
9	0.08000000	-2724.462891	1291.668457	271.019592	-2766.597900	1294.659180	-71.311394	-2826.958496	1358.079346	107.983017	-2696.210938	1263.977661	95.384087	-2735.047852	1007.662415	367.760895	-2838.641846	1005.883423	-144.701187	-2617.136719	802.371796	343.733154	-2812.414795	772.490906	-138.882729	-2727.986328	839.813843	264.601929	-2715.904297	860.260925	-60.111946	-2896.448730	895.077881	108.560631	-2899.045166	1091.172974	115.026474	-2625.675293	1046.242188	90.327080	-2824.162598	533.137390	296.277771	-2768.769775	397.364075	234.764404	-2890.858398	317.820038	273.978058	-3081.180908	188.731186	189.005630	-3111.608643	220.078125	125.757362	-3058.659668	57.000366	173.104218	-2681.156738	551.173889	-72.802223	-2630.656982	432.970184	-10.667733	-2637.400635	277.069672	-56.775291	-2656.473145	52.070473	13.321192	-2706.743164	26.362923	67.327065	-2539.453857	35.483021	44.290287
10	0.09000000	-2712.540771	1294.236572	271.864471	-2754.058350	1297.796875	-70.702629	-2814.554199	1360.937622	108.531273	-2683.846191	1266.811401	95.979019	-2724.986816	1010.093384	367.996246	-2821.603271	1008.361755	-145.589279	-2612.285156	801.668060	345.504074	-2787.290527	775.685486	-140.540192	-2715.665039	842.914185	264.534271	-2704.409912	862.634827	-60.430981	-2884.442139	898.149048	108.382431	-2886.671143	1093.972046	114.829567	-2612.011719	1049.728027	90.238518	-2802.618896	535.037598	297.481628	-2742.949707	400.230255	236.418594	-2864.963867	321.380737	274.806549	-3055.257324	193.249466	188.867615	-3086.271973	223.311737	125.107872	-3031.103271	62.273556	176.035889	-2674.303467	552.419861	-73.052635	-2627.210449	432.984528	-10.898141	-2635.400879	276.844147	-56.918419	-2656.476807	52.058197	13.349100	-2706.836670	26.339254	67.343712	-2539.583740	35.521969	44.296444
